<svg width="96" height="96" viewBox="0 0 96 96" fill="none" xmlns="http://www.w3.org/2000/svg">
  <rect width="96" height="96" rx="28" fill="#17130F"/>
  <circle cx="48" cy="48" r="31" fill="#FFF8EA"/>
  <path d="M48 16C54 28 64 32 78 30C70 40 70 51 78 62C64 60 54 64 48 80C42 64 32 60 18 62C26 51 26 40 18 30C32 32 42 28 48 16Z" fill="#C79D4F"/>
  <path d="M48 27C52.8 36.5 60.5 39.6 71.4 38.1C65.1 45.9 65.1 54.1 71.4 61.9C60.5 60.4 52.8 63.5 48 73C43.2 63.5 35.5 60.4 24.6 61.9C30.9 54.1 30.9 45.9 24.6 38.1C35.5 39.6 43.2 36.5 48 27Z" fill="#C78D7F"/>
  <circle cx="48" cy="50" r="11" fill="#17130F"/>
  <circle cx="48" cy="50" r="5" fill="#FFF8EA"/>
  <path d="M48 59C45.5 66 41.2 70.4 35 73.5" stroke="#5E6B5B" stroke-width="4" stroke-linecap="round"/>
  <path d="M49 60C56 62 61 66 65 72" stroke="#5E6B5B" stroke-width="4" stroke-linecap="round"/>
</svg>
